<?xml version="1.0" encoding="UTF-8"?>
<svg width="279px" height="172px" viewBox="0 0 279 172" version="1.1" xmlns="http://www.w3.org/2000/svg" xmlns:xlink="http://www.w3.org/1999/xlink">
    <!-- Generator: Sketch 41.2 (35397) - http://www.bohemiancoding.com/sketch -->
    <title>coupon</title>
    <desc>Created with Sketch.</desc>
    <defs></defs>
    <g id="Page-1" stroke="none" stroke-width="1" fill="none" fill-rule="evenodd">
        <g id="Artboard-2" transform="translate(-150.000000, -156.000000)" fill="#A9A9A9">
            <g id="coupon" transform="translate(96.000000, 56.000000)">
                <g id="Group">
                    <path d="M291.468132,77.5450549 L291.468132,77.5450549 C283.938462,64.4967033 270.342857,57.178022 256.341758,57.1912088 C249.431868,57.1879121 242.406593,58.9714286 235.984615,62.6802198 L205.091209,80.5153846 L204.965934,80.5714286 L204.853846,80.6538462 L65.3208791,161.212088 C52.3351648,168.708791 44.9934066,182.357143 45,196.417582 C44.9967033,203.297802 46.7604396,210.3 50.4527473,216.692308 L57.1714286,228.32967 C57.810989,229.437363 58.8428571,230.228571 60.0791209,230.558242 C61.3153846,230.887912 62.6043956,230.71978 63.7120879,230.08022 C67.9417582,227.637363 72.5043956,226.493407 77.0175824,226.49011 C86.1857143,226.5 95.0505495,231.237363 100.002198,239.805495 C102.441758,244.035165 103.589011,248.597802 103.592308,253.110989 C103.582418,262.279121 98.8450549,271.147253 90.2802198,276.095604 C87.9923077,277.417582 87.2076923,280.345055 88.5296703,282.632967 L95.2483516,294.27033 C102.764835,307.272527 116.482418,314.554945 130.526374,314.548352 C137.4,314.551648 144.382418,312.804396 150.731868,309.135165 L321.398901,210.6 C334.46044,203.057143 341.723077,189.389011 341.713187,175.404396 C341.716484,168.501099 339.949451,161.495604 336.267033,155.116484 L291.468132,77.5450549 Z M316.605495,202.312088 L289.737363,217.823077 L280.641758,202.068132 C279.31978,199.78022 276.392308,198.995604 274.104396,200.317582 C271.816484,201.63956 271.031868,204.567033 272.353846,206.854945 L281.449451,222.60989 L145.938462,300.847253 C141.079121,303.652747 135.781319,304.974725 130.51978,304.978022 C119.746154,304.974725 109.249451,299.4 103.52967,289.483516 L99.0428571,281.713187 C108.131868,274.740659 113.165934,264.062637 113.159341,253.110989 C113.162637,246.969231 111.58022,240.718681 108.286813,235.018681 C101.591209,223.420879 89.4758242,216.90989 77.0142857,216.91978 C72.3857143,216.91978 67.6945055,217.81978 63.2241758,219.672527 L58.7406593,211.908791 C55.9021978,206.99011 54.5703297,201.675824 54.5703297,196.417582 C54.5769231,185.657143 60.1681319,175.232967 70.1043956,169.5 L205.612088,91.2659341 L214.694505,106.994505 C216.016484,109.282418 218.943956,110.067033 221.231868,108.745055 C223.51978,107.423077 224.304396,104.495604 222.982418,102.207692 L213.9,86.4791209 L240.768132,70.9648352 C245.723077,68.1065934 251.063736,66.7615385 256.338462,66.7582418 C267.042857,66.7681319 277.384615,72.3 283.173626,82.3285714 L327.962637,159.903297 C330.787912,164.798901 332.126374,170.123077 332.126374,175.404396 C332.123077,186.121978 326.607692,196.536264 316.605495,202.312088 Z" id="Shape" transform="translate(193.356596, 185.869774) rotate(30.000000) translate(-193.356596, -185.869774) "></path>
                </g>
                <g id="discount" transform="translate(190.000000, 119.000000)">
                    <g id="Group">
                        <path d="M63.3,31.2 L59,24.8 L59.5,17.1 C59.5,16.5 59.2,15.9 58.7,15.7 L51.8,12.3 L48.4,5.4 C48.1,4.9 47.6,4.5 47,4.6 L39.2,5 L32.8,0.8 C32.3,0.5 31.6,0.5 31.1,0.8 L24.8,5 L17.1,4.5 C16.5,4.5 15.9,4.8 15.7,5.3 L12.3,12.2 L5.4,15.6 C4.9,15.9 4.5,16.4 4.6,17 L5.1,24.7 L0.9,31.1 C0.6,31.6 0.6,32.2 0.9,32.8 L5.1,39.2 L4.6,46.9 C4.6,47.5 4.9,48.1 5.4,48.3 L12.3,51.7 L15.7,58.6 C16,59.1 16.5,59.5 17.1,59.4 L24.8,58.9 L31.2,63.1 C31.4,63.3 31.7,63.3 32,63.3 C32.3,63.3 32.6,63.2 32.8,63.1 L39.2,58.9 L46.9,59.4 C47.5,59.4 48.1,59.1 48.3,58.6 L51.7,51.7 L58.6,48.3 C59.1,48 59.5,47.5 59.4,46.9 L59,39.2 L63.2,32.8 C63.6,32.3 63.6,31.7 63.3,31.2 Z M56.2,38 C56,38.3 55.9,38.6 56,38.9 L56.4,46.1 L50,49.3 C49.7,49.4 49.5,49.7 49.3,50 L46.1,56.4 L38.9,56 C38.6,56 38.3,56.1 38,56.2 L32,60.2 L26,56.2 C25.8,56 25.5,56 25.2,56 L17.9,56.4 L14.7,50 C14.6,49.7 14.3,49.5 14,49.3 L7.6,46.1 L8,38.9 C8,38.6 7.9,38.3 7.8,38 L3.8,32 L7.8,26 C8,25.7 8.1,25.4 8,25.1 L7.6,17.9 L14,14.7 C14.3,14.6 14.5,14.3 14.7,14 L17.9,7.6 L25.1,8 C25.4,8 25.7,7.9 26,7.8 L32,3.8 L38,7.8 C38.3,8 38.6,8.1 38.9,8 L46.1,7.6 L49.3,14 C49.4,14.3 49.7,14.5 50,14.7 L56.4,17.9 L56,25.1 C56,25.4 56.1,25.7 56.2,26 L60.2,32 L56.2,38 Z" id="Shape"></path>
                        <path d="M24.2,30.2 C28,30.2 31.1,27.1 31.1,23.3 C31.1,19.5 28,16.4 24.2,16.4 C20.4,16.4 17.3,19.5 17.3,23.3 C17.3,27.1 20.4,30.2 24.2,30.2 Z M24.2,19.3 C26.4,19.3 28.1,21.1 28.1,23.2 C28.1,25.4 26.3,27.1 24.2,27.1 C22.1,27.1 20.3,25.3 20.3,23.2 C20.3,21.1 22.1,19.3 24.2,19.3 Z" id="Shape"></path>
                        <path d="M39.8,33.8 C36,33.8 32.9,36.9 32.9,40.7 C32.9,44.5 36,47.6 39.8,47.6 C43.6,47.6 46.7,44.5 46.7,40.7 C46.7,36.9 43.6,33.8 39.8,33.8 Z M39.8,44.7 C37.6,44.7 35.9,42.9 35.9,40.8 C35.9,38.7 37.7,36.9 39.8,36.9 C41.9,36.9 43.7,38.7 43.7,40.8 C43.7,42.9 41.9,44.7 39.8,44.7 Z" id="Shape"></path>
                        <rect id="Rectangle-path" transform="translate(32.034555, 31.964445) rotate(-45.000000) translate(-32.034555, -31.964445) " x="13.8847291" y="30.4644594" width="36.2996519" height="2.99997123"></rect>
                    </g>
                </g>
                <text id="Page-1" font-family="FjallaOne-Regular, Fjalla One" font-size="98" font-weight="normal" letter-spacing="0.00095609756">
                    <tspan x="96" y="204">20</tspan>
                </text>
                <text id="OFF" font-family="FjallaOne-Regular, Fjalla One" font-size="36" font-weight="normal" letter-spacing="0.000351219496">
                    <tspan x="197" y="218">OFF</tspan>
                </text>
                <g id="barcode" transform="translate(290.500000, 139.000000) rotate(90.000000) translate(-290.500000, -139.000000) translate(276.000000, 131.000000)">
                    <g id="New-Merchandise">
                        <g id="Group">
                            <g id="Shape">
                                <path d="M0,0 L1.56426968,0 L1.56426968,16 L0,16 L0,0 L0,0 Z M4.20852593,0 L5.77279561,0 L5.77279561,16 L4.20852593,16 L4.20852593,0 L4.20852593,0 Z M26.6725711,15.9132583 L26.6725711,0 L28.2368408,0 L28.2368408,15.9132583 C28.2368408,15.9132583 26.6725711,15.9274663 26.6725711,15.9132583 L26.6725711,15.9132583 Z M7.33706529,0 L11.2477395,0 L11.2477395,16 L7.33706529,16 L7.33706529,0 L7.33706529,0 Z M13.3762789,0 L14.1584137,0 L14.1584137,16 L13.3762789,16 L13.3762789,0 L13.3762789,0 Z M25.1083015,0 L25.8904363,0 L25.8904364,15.8241649 L25.1083015,15.8241652 L25.1083015,0 L25.1083015,0 Z M19.1083015,0 L19.8904363,0 L19.8904364,15.8241649 L19.1083015,15.8241652 L19.1083015,0 L19.1083015,0 Z M14.7226834,0 L17.0690879,0 L17.0690879,16 L14.7226834,16 L14.7226834,0 L14.7226834,0 Z M21.1976273,0 L23.5440318,0 L23.5440318,15.9065946 C23.5440318,15.9284237 22.7583349,15.9153662 22.7583349,15.9153662 C22.2094696,15.9105218 21.3069311,15.9065946 21.1976273,15.9065946 L21.1976273,0 L21.1976273,0 Z"></path>
                            </g>
                        </g>
                    </g>
                </g>
                <g id="barcode-copy" transform="translate(290.500000, 162.000000) rotate(90.000000) translate(-290.500000, -162.000000) translate(276.000000, 154.000000)">
                    <g id="New-Merchandise">
                        <g id="Group">
                            <g id="Shape">
                                <path d="M0,0 L1.56426968,0 L1.56426968,16 L0,16 L0,0 L0,0 Z M4.20852593,0 L5.77279561,0 L5.77279561,16 L4.20852593,16 L4.20852593,0 L4.20852593,0 Z M26.6725711,15.9132583 L26.6725711,0 L28.2368408,0 L28.2368408,15.9132583 C28.2368408,15.9132583 26.6725711,15.9274663 26.6725711,15.9132583 L26.6725711,15.9132583 Z M7.33706529,0 L11.2477395,0 L11.2477395,16 L7.33706529,16 L7.33706529,0 L7.33706529,0 Z M13.3762789,0 L14.1584137,0 L14.1584137,16 L13.3762789,16 L13.3762789,0 L13.3762789,0 Z M25.1083015,0 L25.8904363,0 L25.8904364,15.8241649 L25.1083015,15.8241652 L25.1083015,0 L25.1083015,0 Z M19.1083015,0 L19.8904363,0 L19.8904364,15.8241649 L19.1083015,15.8241652 L19.1083015,0 L19.1083015,0 Z M14.7226834,0 L17.0690879,0 L17.0690879,16 L14.7226834,16 L14.7226834,0 L14.7226834,0 Z M21.1976273,0 L23.5440318,0 L23.5440318,15.9065946 C23.5440318,15.9284237 22.7583349,15.9153662 22.7583349,15.9153662 C22.2094696,15.9105218 21.3069311,15.9065946 21.1976273,15.9065946 L21.1976273,0 L21.1976273,0 Z"></path>
                            </g>
                        </g>
                    </g>
                </g>
                <g id="barcode-copy-2" transform="translate(290.500000, 192.000000) rotate(90.000000) translate(-290.500000, -192.000000) translate(276.000000, 184.000000)">
                    <g id="New-Merchandise">
                        <g id="Group">
                            <g id="Shape">
                                <path d="M0,0 L1.56426968,0 L1.56426968,16 L0,16 L0,0 L0,0 Z M4.20852593,0 L5.77279561,0 L5.77279561,16 L4.20852593,16 L4.20852593,0 L4.20852593,0 Z M26.6725711,15.9132583 L26.6725711,0 L28.2368408,0 L28.2368408,15.9132583 C28.2368408,15.9132583 26.6725711,15.9274663 26.6725711,15.9132583 L26.6725711,15.9132583 Z M7.33706529,0 L11.2477395,0 L11.2477395,16 L7.33706529,16 L7.33706529,0 L7.33706529,0 Z M13.3762789,0 L14.1584137,0 L14.1584137,16 L13.3762789,16 L13.3762789,0 L13.3762789,0 Z M25.1083015,0 L25.8904363,0 L25.8904364,15.8241649 L25.1083015,15.8241652 L25.1083015,0 L25.1083015,0 Z M19.1083015,0 L19.8904363,0 L19.8904364,15.8241649 L19.1083015,15.8241652 L19.1083015,0 L19.1083015,0 Z M14.7226834,0 L17.0690879,0 L17.0690879,16 L14.7226834,16 L14.7226834,0 L14.7226834,0 Z M21.1976273,0 L23.5440318,0 L23.5440318,15.9065946 C23.5440318,15.9284237 22.7583349,15.9153662 22.7583349,15.9153662 C22.2094696,15.9105218 21.3069311,15.9065946 21.1976273,15.9065946 L21.1976273,0 L21.1976273,0 Z"></path>
                            </g>
                        </g>
                    </g>
                </g>
                <g id="barcode-copy-3" transform="translate(290.500000, 223.000000) scale(1, -1) rotate(90.000000) translate(-290.500000, -223.000000) translate(276.000000, 215.000000)">
                    <g id="New-Merchandise">
                        <g id="Group">
                            <g id="Shape">
                                <path d="M0,0 L1.56426968,0 L1.56426968,16 L0,16 L0,0 L0,0 Z M4.20852593,0 L5.77279561,0 L5.77279561,16 L4.20852593,16 L4.20852593,0 L4.20852593,0 Z M26.6725711,15.9132583 L26.6725711,0 L28.2368408,0 L28.2368408,15.9132583 C28.2368408,15.9132583 26.6725711,15.9274663 26.6725711,15.9132583 L26.6725711,15.9132583 Z M7.33706529,0 L11.2477395,0 L11.2477395,16 L7.33706529,16 L7.33706529,0 L7.33706529,0 Z M13.3762789,0 L14.1584137,0 L14.1584137,16 L13.3762789,16 L13.3762789,0 L13.3762789,0 Z M25.1083015,0 L25.8904363,0 L25.8904364,15.8241649 L25.1083015,15.8241652 L25.1083015,0 L25.1083015,0 Z M19.1083015,0 L19.8904363,0 L19.8904364,15.8241649 L19.1083015,15.8241652 L19.1083015,0 L19.1083015,0 Z M14.7226834,0 L17.0690879,0 L17.0690879,16 L14.7226834,16 L14.7226834,0 L14.7226834,0 Z M21.1976273,0 L23.5440318,0 L23.5440318,15.9065946 C23.5440318,15.9284237 22.7583349,15.9153662 22.7583349,15.9153662 C22.2094696,15.9105218 21.3069311,15.9065946 21.1976273,15.9065946 L21.1976273,0 L21.1976273,0 Z"></path>
                            </g>
                        </g>
                    </g>
                </g>
            </g>
        </g>
    </g>
</svg>