<svg fill="#FFFFFF" xmlns="http://www.w3.org/2000/svg" xmlns:xlink="http://www.w3.org/1999/xlink" version="1.1" x="0px" y="0px" viewBox="0 0 96 96" style="enable-background:new 0 0 96 96;" xml:space="preserve"><style type="text/css">
	.st0{fill:none;}
	.st1{fill:none;stroke:#FFFFFF;stroke-width:4;stroke-linecap:round;stroke-linejoin:round;stroke-miterlimit:10;}
	.st2{fill:none;stroke:#FFFFFF;stroke-width:5;stroke-linecap:round;stroke-linejoin:round;stroke-miterlimit:10;}
</style><g><path d="M80.6,41c0-0.3,0-0.7,0-1c0-4.1-1.6-7.7-4.3-10.4c-2.7-2.7-6.3-4.3-10.4-4.3c-1.4,0-2.7,0.2-4,0.5   c-0.8-1.2-1.7-2.3-2.7-3.2c-4.1-4.1-9.8-6.6-16-6.6c-6.3,0-11.9,2.5-16,6.6c-4.1,4.1-6.6,9.6-6.6,15.8c-3.2,1.1-6.1,2.8-8.4,5.2   C8.4,47.4,6,52.8,6,58.7C6,70.5,15.5,80,27.3,80h41.3c5.9,0,11.2-2.4,15.1-6.2c3.9-3.9,6.2-9.2,6.2-15.1C90,51.3,86.3,44.8,80.6,41   z M35.1,55.7c0.8-0.8,2.1-0.8,2.8,0l8.1,8V41.5c0-1.1,0.9-2,2-2s2,0.9,2,2v22.2l8.1-8c0.8-0.8,2.1-0.8,2.8,0s0.8,2.1,0,2.8   L49.4,69.9c-0.2,0.2-0.4,0.3-0.5,0.4c0,0-0.1,0-0.1,0.1c-0.1,0-0.2,0.1-0.2,0.1c0,0-0.1,0-0.1,0c-0.1,0-0.3,0-0.4,0s-0.3,0-0.4,0   c0,0-0.1,0-0.1,0c-0.1,0-0.2,0-0.2-0.1c0,0-0.1,0-0.1-0.1c-0.2-0.1-0.4-0.2-0.5-0.4L35.1,58.5C34.3,57.7,34.3,56.5,35.1,55.7z"/></g></svg>