<?xml version="1.0" encoding="UTF-8"?>
<svg width="225px" height="47px" viewBox="0 0 225 47" version="1.1" xmlns="http://www.w3.org/2000/svg" xmlns:xlink="http://www.w3.org/1999/xlink">
    <!-- Generator: Sketch 41.2 (35397) - http://www.bohemiancoding.com/sketch -->
    <title>lenovo</title>
    <desc>Created with Sketch.</desc>
    <defs></defs>
    <g id="Page-1" stroke="none" stroke-width="1" fill="none" fill-rule="evenodd">
        <g id="Artboard-2" transform="translate(-18.000000, -41.000000)" fill="#8198A1">
            <g id="lenovo" transform="translate(17.000000, 41.000000)">
                <g id="svg2">
                    <g id="layer1" transform="translate(0.067658, 0.206653)">
                        <g id="g23944" transform="translate(0.438516, 0.208201)">
                            <g id="g13605" transform="translate(91.738305, 28.428096) scale(-1, 1) rotate(90.000000) translate(-91.738305, -28.428096) translate(73.755545, 9.498875)">
                                <path d="M0,22.7150652 C0,18.6888199 1.86642119,14.1098413 5.6030494,11.3121024 L5.59547772,11.3139954 L5.59737064,11.3121024 L0.58680585,11.3139954 L0.58680585,1.71120157 L35.5566487,1.71120157 L35.5566487,11.3121024 L15.6582516,11.3121024 C12.076843,11.3121024 8.27017664,14.0890192 8.27017664,19.2301956 C8.27017664,23.2034391 11.0338429,27.3148658 15.6582516,27.3148658 L35.5566487,27.3148658 L35.5566487,36.9176596 L13.8789048,36.9176596 C5.83587882,36.9176596 0,31.1631765 0,22.7150652" id="path13607"></path>
                            </g>
                            <g id="g13609" transform="translate(169.333206, 28.533655) rotate(90.000000) translate(-169.333206, -28.533655) translate(151.833206, 8.533655)">
                                <polygon id="path13611" points="2.84217094e-14 28.3938314 23.8205317 19.7128907 2.84217094e-14 11.03195 2.84217094e-14 0.0624664292 34.9584853 14.4505673 34.9584853 24.9733212 2.84217094e-14 39.3614221"></polygon>
                            </g>
                            <g id="g13613" transform="translate(52.995204, 28.710801) scale(-1, 1) rotate(90.000000) translate(-52.995204, -28.710801) translate(34.495204, 10.210801)">
                                <path d="M11.3575326,11.3575326 C9.16174295,12.9930173 7.872663,15.5976781 7.872663,18.7437146 C7.872663,22.2039762 9.84887367,24.8294591 12.7658666,26.1866843 L19.7261412,9.40971574 C16.1541972,8.95162859 13.3602442,9.86590996 11.3575326,11.3575326 L11.3575326,11.3575326 Z M25.0395735,29.8059513 C28.0303904,25.7645627 28.744022,23.4551977 28.744022,19.7696784 C28.744022,16.4532789 27.7142724,13.8561897 25.9084247,12.0257341 L15.7245039,36.5750407 C11.929195,36.0393438 8.53897158,34.5988301 5.96081168,32.3822183 C2.21471885,29.156679 0.232829418,24.3827295 0.232829418,18.5695658 C0.232829418,8.01084631 8.02220384,0.0492159745 18.3102354,0.0492159745 C28.865169,0.0492159745 36.3857485,8.02977553 36.3857485,19.6277092 C36.3857485,26.1261108 33.3059643,32.7702673 29.7075194,35.8784454 L25.0395735,29.8059513 Z" id="path13615"></path>
                            </g>
                            <g id="g13617" transform="translate(17.129192, 23.326309) rotate(90.000000) translate(-17.129192, -23.326309) translate(-5.870808, 6.826309)">
                                <polygon id="path13619" transform="translate(22.961554, 16.400277) scale(1, -1) translate(-22.961554, -16.400277) " points="36.8584419 32.1796756 36.8584419 10.3542839 0.247435661 10.3542839 0.247435661 0.620878448 45.675673 0.620878448 45.675673 32.1796756"></polygon>
                            </g>
                            <g id="g13621" transform="translate(206.115297, 28.707741) rotate(90.000000) translate(-206.115297, -28.707741) translate(187.615297, 9.707741)">
                                <path d="M8.46461048,18.929221 C8.46461048,13.5665727 12.5287142,9.67283191 18.3096983,9.67283191 C23.8294591,9.67283191 28.1547861,13.7975092 28.1547861,19.0579397 C28.1547861,24.4224809 23.979,28.3143287 18.3096983,28.3143287 C12.7899375,28.3143287 8.46461048,24.1915444 8.46461048,18.929221 M36.3833185,18.929221 C36.3833185,8.42728917 28.5598715,0.19875682 18.3096983,0.19875682 C8.1749934,0.19875682 0.236078129,8.48407683 0.236078129,19.0579397 C0.236078129,29.5598715 8.05952515,37.7865109 18.3096983,37.7865109 C28.4425103,37.7865109 36.3833185,29.5030838 36.3833185,18.929221" id="path13623"></path>
                            </g>
                            <g id="g13625" transform="translate(132.183437, 28.707741) rotate(90.000000) translate(-132.183437, -28.707741) translate(113.683437, 9.707741)">
                                <path d="M8.46461048,18.929221 C8.46461048,13.5665727 12.5287142,9.67472483 18.3096983,9.67472483 C23.8294591,9.67472483 28.1547861,13.7975092 28.1547861,19.0598326 C28.1547861,24.4224809 23.979,28.3143287 18.3096983,28.3143287 C12.7899375,28.3143287 8.46461048,24.1915444 8.46461048,18.929221 M36.3833185,18.929221 C36.3833185,8.42728917 28.5598715,0.200649742 18.3096983,0.200649742 C8.1749934,0.200649742 0.236078129,8.48407683 0.236078129,19.0598326 C0.236078129,29.5598715 8.05952515,37.7884038 18.3096983,37.7884038 C28.4425103,37.7884038 36.3833185,29.5030838 36.3833185,18.929221" id="path13627"></path>
                            </g>
                        </g>
                    </g>
                </g>
            </g>
        </g>
    </g>
</svg>