<?xml version="1.0" encoding="UTF-8"?>
<svg width="145px" height="140px" viewBox="0 0 145 140" version="1.1" xmlns="http://www.w3.org/2000/svg" xmlns:xlink="http://www.w3.org/1999/xlink">
    <title>Logo Chic ActiveDirectory</title>
    <desc>FewBox.</desc>
    <defs>
        <polygon id="path-1" points="-2.84217094e-14 26 72.0064734 0.162779652 144.012947 26 144.012947 115 72.0064734 139.50451 -2.84217094e-14 115"></polygon>
        <mask id="mask-2" maskContentUnits="userSpaceOnUse" maskUnits="objectBoundingBox" x="0" y="0" width="144.012947" height="139.34173" fill="white">
            <use xlink:href="#path-1"></use>
        </mask>
    </defs>
    <g id="Symbols" stroke="none" stroke-width="1" fill="none" fill-rule="evenodd">
        <g id="Logo-Chic-ActiveDirectory">
            <use id="Border" stroke="#4A90E2" mask="url(#mask-2)" stroke-width="4" xlink:href="#path-1"></use>
            <g id="AD" transform="translate(22.000000, 44.000000)" fill="#4A90E2">
                <rect id="Rectangle-22" transform="translate(11.100000, 26.500000) rotate(17.000000) translate(-11.100000, -26.500000) " x="8" y="0" width="6.19999981" height="53"></rect>
                <rect id="Rectangle-22-Copy" transform="translate(38.100000, 26.500000) scale(-1, 1) rotate(17.000000) translate(-38.100000, -26.500000) " x="35" y="0" width="6.19999981" height="53"></rect>
                <rect id="Rectangle-22-Copy-5" transform="translate(67.100000, 26.000000) scale(-1, 1) translate(-67.100000, -26.000000) " x="64" y="1" width="6.19999981" height="50"></rect>
                <rect id="Rectangle-22-Copy-6" transform="translate(90.100000, 26.000000) scale(-1, 1) translate(-90.100000, -26.000000) " x="87" y="1" width="6.19999981" height="50"></rect>
                <rect id="Rectangle-22-Copy-2" transform="translate(25.100000, 33.500000) scale(-1, 1) rotate(-90.000000) translate(-25.100000, -33.500000) " x="22" y="16" width="6.19999981" height="35"></rect>
                <rect id="Rectangle-22-Copy-3" transform="translate(73.100000, 4.000000) scale(-1, 1) rotate(-90.000000) translate(-73.100000, -4.000000) " x="70" y="-16" width="6.19999981" height="40"></rect>
                <rect id="Rectangle-22-Copy-4" transform="translate(73.100000, 49.000000) scale(-1, 1) rotate(-90.000000) translate(-73.100000, -49.000000) " x="70" y="29" width="6.19999981" height="40"></rect>
            </g>
        </g>
    </g>
</svg>