<svg xmlns="http://www.w3.org/2000/svg" width="128" height="128" viewBox="0 0 128 128">
  <g fill="none" fill-rule="evenodd">
    <path stroke="#6B889D" d="M65.0081562,24.3597126 L117.433782,43.0653052 C118.628203,43.4914774 119.425626,44.6226623 119.425626,45.8908354 L119.425626,81.2131646 C119.425626,82.4813377 118.628203,83.6125226 117.433782,84.0386948 L65.0081562,102.744287 C64.356181,102.976914 63.643819,102.976914 62.9918438,102.744287 L10.566218,84.0386948 C9.37179748,83.6125226 8.57437416,82.4813377 8.57437416,81.2131646 L8.57437416,45.8908354 C8.57437416,44.6226623 9.37179748,43.4914774 10.566218,43.0653052 L62.9918438,24.3597126 C63.643819,24.1270863 64.356181,24.1270863 65.0081562,24.3597126 Z"/>
    <g fill="#6B889D" transform="translate(37 50)">
      <g transform="translate(1.788 .083)">
        <rect width="38" height="4" x="2.39" rx="2"/>
        <path d="M1.49427099,2.45598689 L5.49559665,2.46172946 C6.59828226,2.463312 7.49213259,3.35617499 7.49493382,4.45885818 C7.49772069,5.55589123 6.6106589,6.44747144 5.51362584,6.45025831 C5.51099357,6.450265 5.50836129,6.45026645 5.50572901,6.45026268 L1.50440335,6.44452011 C0.401717741,6.44293758 -0.492132593,5.55007458 -0.49493382,4.44739139 C-0.497720692,3.35035834 0.389341104,2.45877813 1.48637416,2.45599126 C1.48900643,2.45598457 1.49163871,2.45598312 1.49427099,2.45598689 Z" transform="rotate(110 3.5 4.453)"/>
      </g>
      <rect width="38" height="4" y="11.833" rx="2"/>
      <g transform="translate(13.5 19)">
        <rect width="38" height="4" y="5.129" rx="2"/>
        <path d="M35.1765406,2.90339811 L39.1803275,2.90869743 C40.2829511,2.91015683 41.1765573,3.80342482 41.1784341,4.90604777 C41.1803036,6.00436757 40.2914549,6.8962472 39.1931351,6.89811666 C39.1911294,6.89812008 39.1891237,6.89812046 39.187118,6.8981178 L35.1833311,6.89281848 C34.0807075,6.89135908 33.1871013,5.9980911 33.1852245,4.89546814 C33.1833551,3.79714834 34.0722037,2.90526871 35.1705235,2.90339925 C35.1725292,2.90339583 35.1745349,2.90339545 35.1765406,2.90339811 Z" transform="rotate(110 37.182 4.9)"/>
      </g>
    </g>
  </g>
</svg>