<?xml version="1.0" encoding="UTF-8"?>
<svg width="86px" height="88px" viewBox="0 0 86 88" version="1.1" xmlns="http://www.w3.org/2000/svg" xmlns:xlink="http://www.w3.org/1999/xlink">
    <!-- Generator: Sketch 41.2 (35397) - http://www.bohemiancoding.com/sketch -->
    <title>manAvatar</title>
    <desc>Created with Sketch.</desc>
    <defs></defs>
    <g id="Page-1" stroke="none" stroke-width="1" fill="none" fill-rule="evenodd">
        <g id="resource" transform="translate(-808.000000, -336.000000)" fill="#A9A9A9">
            <g id="manAvatar" transform="translate(808.000000, 335.000000)">
                <g id="Group">
                    <path d="M75.3,57.1 C73,56.9 59.7,52.8 54.8,50.7 C54.7,56.6 54.5,66.6 54.4,67.3 C54.3,68.4 52.7,73.4 47.8,79.9 C47.8,79.9 47.4,75.5 47,70.2 C46.7,66.2 44.1,64.1 44.1,62 C44.1,61.5 46,60.2 46,58.9 C46,57.6 45.6,56.3 42.9,56.3 C40.2,56.3 39.8,57.6 39.8,58.9 C39.8,60.2 41.7,61.5 41.7,62 C41.7,64.1 39.2,66.2 38.8,70.2 C38.4,75.5 38,79.9 38,79.9 C33.1,73.4 31.5,68.4 31.4,67.3 C31.3,66.5 31.1,56.6 31,50.7 C26.1,52.8 12.8,56.9 10.5,57.1 C7.8,57.3 7.1,58.1 5.8,60.4 C4.4,62.7 1.2,74.1 0.7,81.4 C4.9,83 24.4,89 43,89 C61.6,89 81.1,83 85.1,81.4 C84.6,74.1 81.4,62.7 80,60.4 C78.7,58.1 78,57.4 75.3,57.1 Z" id="Shape"></path>
                    <path d="M27.1,25.3 C27.2,26.5 27.4,29.8 27.7,32.5 C27.9,35.2 29.5,34.8 29.8,34.5 C29.8,38.2 32.8,41.8 32.8,41.8 C34.2,44 39.1,47 43,47 C35.8,47 32.8,44.1 32.8,44.1 L32.8,49.7 L41.6,55.7 L44.3,55.7 L53.1,49.7 L53.1,41.7 C53.1,41.7 56.1,38 56.1,34.4 C56.4,34.7 58,35.1 58.2,32.4 C58.4,29.7 58.7,26.4 58.8,25.2 C58.9,24 57.3,24.2 57.2,24.9 C57.2,23.9 57.1,23.5 57.2,23.4 C57.3,23.3 58.2,22.3 58.2,21.4 C58.2,20.5 58.7,19.9 58.7,18.2 L58.7,11 C58.7,9.9 57.6,10.5 57.6,9.9 C57.6,9.3 56.9,6.6 53.3,6.6 C54.3,5.8 54.9,3.3 54.7,2.2 C54.4,3 52.9,3.5 52.1,3.5 C48,3.6 46.4,0.9 41.5,1 C35,1.1 32.6,4.5 32.6,6.6 C29,6.6 28.3,9.3 28.3,9.9 C28.3,10.5 27.2,9.8 27.2,11 L27.2,18.2 C27.2,19.9 27.7,20.5 27.7,21.4 C27.7,22.3 28.6,23.3 28.7,23.4 C28.8,23.5 28.7,23.9 28.7,24.9 C28.7,24.3 27.1,24 27.1,25.3 Z" id="Shape"></path>
                </g>
            </g>
        </g>
    </g>
</svg>