<svg fill="#FFFFFF" xmlns="http://www.w3.org/2000/svg" xmlns:xlink="http://www.w3.org/1999/xlink" version="1.1" x="0px" y="0px" viewBox="0 0 100 100" style="enable-background:new 0 0 100 100;" xml:space="preserve"><path d="M83.7,26.3c-0.1-1-1-1.8-2-1.8H67.8C67,12.3,58.9,2.8,49.1,2.8s-18,9.6-18.8,21.7H16.4c-1,0-1.9,0.8-2,1.9  L9.4,95.1c0,0.6,0.2,1.1,0.5,1.5c0.4,0.4,0.9,0.6,1.5,0.6h76.3c0.6,0,1.1-0.2,1.5-0.6s0.6-1,0.5-1.5L83.7,26.3z M49.1,7.8  c7,0,12.8,6.9,13.7,16.2H35.4C36.3,14.7,42.1,7.8,49.1,7.8z M35.3,42c-1.9,0-3.5-1.6-3.5-3.5s1.6-3.5,3.5-3.5s3.5,1.6,3.5,3.5  S37.2,42,35.3,42z M62.4,42c-1.9,0-3.5-1.6-3.5-3.5s1.6-3.5,3.5-3.5s3.5,1.6,3.5,3.5S64.3,42,62.4,42z"/></svg>