<?xml version="1.0" encoding="UTF-8"?>
<svg width="227px" height="40px" viewBox="0 0 227 40" version="1.1" xmlns="http://www.w3.org/2000/svg" xmlns:xlink="http://www.w3.org/1999/xlink">
    <!-- Generator: Sketch 41.2 (35397) - http://www.bohemiancoding.com/sketch -->
    <title>sony</title>
    <desc>Created with Sketch.</desc>
    <defs></defs>
    <g id="Page-1" stroke="none" stroke-width="1" fill="none" fill-rule="evenodd">
        <g id="Artboard-2" transform="translate(-17.000000, -112.000000)" fill="#8198A1">
            <g id="sony" transform="translate(17.000000, 112.000000)">
                <g id="svg4256">
                    <path d="M80.8573562,39.8531818 C72.6356248,39.8531818 65.003634,37.3940909 59.9092596,32.8336364 C56.0604501,29.3881818 54.2110163,24.7081818 54.2110163,19.8913636 C54.2110163,15.1331818 56.1402064,10.4209091 59.9088038,6.99363636 C64.6399454,2.69318182 72.9929329,0 80.8573562,0 C89.5603598,0 96.526044,2.18636364 101.851028,7.00545455 C105.639678,10.4345455 107.471338,15.1259091 107.471338,19.8918182 C107.471338,24.5113636 105.527564,29.4309091 101.851028,32.8336364 C96.8924671,37.4236364 89.1000522,39.8531818 80.8573562,39.8531818 L80.8573562,34.5968182 C85.2211633,34.5968182 89.2691355,33.0940909 92.0961532,30.2886364 C94.9035737,27.5022727 96.2115765,24.0772727 96.2115765,19.8913636 C96.2115765,15.8813636 94.8005742,12.1322727 92.0961532,9.47318182 C89.3069627,6.73318182 85.1623715,5.19136364 80.8573562,5.19136364 C76.5391242,5.19136364 72.3917985,6.71727273 69.6003293,9.47318182 C66.9104923,12.1313636 65.495844,15.8913636 65.495844,19.8913636 C65.495844,23.8790909 66.9268993,27.6368182 69.6003293,30.2890909 C72.3940773,33.0609091 76.526819,34.5972727 80.8573562,34.5972727 L80.8573562,39.8536364 L80.8573562,39.8531818 Z M20.7648852,0.0190909091 C16.3668969,0.0190909091 11.3705088,0.839545455 7.12519676,2.73045455 C3.20711332,4.47409091 2.06937204e-14,7.29409091 2.06937204e-14,11.9690909 C-0.00182300032,16.1795455 2.68117772,18.6454545 2.60825771,18.5772727 C3.74945591,19.625 5.58658448,21.4090909 10.3897346,22.4568182 C12.5363175,22.925 17.1257208,23.6440909 21.6959826,24.1204545 C26.2325189,24.5977273 30.6970467,25.0513636 32.5154895,25.5104545 C33.9602172,25.8772727 36.3870864,26.3768182 36.3870864,29.0922727 C36.3870864,31.7968182 33.8303285,32.6222727 33.3859721,32.8013636 C32.9420716,32.9763636 29.8748735,34.38 24.361209,34.38 C20.2904493,34.38 15.396605,33.1590909 13.6127991,32.5227273 C11.5564548,31.7927273 9.39938966,30.8272727 7.38725305,28.3759091 C6.88683946,27.7681818 6.09748032,26.0968182 6.09748032,24.4418182 L1.1074727,24.4418182 L1.1074727,38.3872727 L6.65395117,38.3872727 L6.65395117,36.5031818 C6.65395117,36.2886364 6.92284372,35.4063636 7.85394113,35.8259091 C9.01245784,36.3509091 12.4132649,37.7013636 15.9690271,38.4418182 C18.8844603,39.05 20.7644294,39.4859091 24.3890098,39.4859091 C30.3028228,39.4859091 33.4798566,38.525 35.6761163,37.8995455 C37.7452217,37.3086364 40.3019796,36.2477273 42.3788327,34.5959091 C43.5036239,33.7027273 45.9701434,31.4131818 45.9701434,27.2572727 C45.9701434,23.2681818 43.8235605,20.7922727 43.0683826,20.0390909 C42.0397547,19.0127273 40.7832517,18.2172727 39.4738817,17.6040909 C38.3331393,17.0686364 36.5329264,16.4254545 35.0599422,16.0659091 C32.2010219,15.3659091 25.7366628,14.5022727 22.64531,14.1795455 C19.4035597,13.8418182 13.7800594,13.3772727 11.534123,12.6840909 C10.8532324,12.4736364 9.46501767,11.8140909 9.46501767,10.2068182 C9.46501767,9.06363636 10.0998775,8.09454545 11.3545575,7.31136364 C13.3461854,6.06681818 17.3690913,5.29318182 21.5624478,5.29318182 C26.5200972,5.275 30.7184669,6.40545455 33.3891624,7.59636364 C34.2974723,8.00090909 35.3602815,8.58181818 36.2043306,9.26909091 C37.1568483,10.0436364 38.494019,11.6531818 38.9775699,13.8981818 L43.4575932,13.8981818 L43.4575932,1.75909091 L38.4552803,1.75909091 L38.4552803,3.17 C38.4552803,3.62545455 37.9835789,4.21727273 37.091676,3.72818182 C34.8530316,2.55681818 28.5235745,0.0295454545 20.7639737,0.0190909091 L20.7648852,0.0190909091 Z M130.388275,2.225 L154.790046,24.1886364 L154.539383,9.40090909 C154.514773,7.46181818 154.156553,6.65227273 152.053722,6.65227273 L147.465686,6.65227273 L147.465686,2.22863636 L168.329925,2.22863636 L168.329925,6.65227273 L163.854459,6.65227273 C161.709699,6.65227273 161.574341,7.33636364 161.548364,9.40090909 L161.926636,37.6568182 L154.781387,37.6568182 L126.675279,12.6386364 L126.681204,30.3940909 C126.705814,32.3240909 126.796509,33.2331818 128.790415,33.2331818 L133.801387,33.2331818 L133.801387,37.655 L113.310864,37.655 L113.310864,33.2336364 L118.100797,33.2336364 C119.890072,33.2336364 119.818975,31.5322727 119.818975,30.2936364 L119.818975,9.56909091 C119.818975,8.23136364 119.63075,6.65545455 116.821507,6.65545455 L112.93487,6.65545455 L112.93487,2.225 L130.388275,2.225 Z M192.171579,33.225 C192.367551,33.225 193.238034,33.2 193.406662,33.1486364 C193.888389,32.9986364 194.215162,32.6559091 194.366471,32.2986364 C194.430276,32.1486364 194.462179,31.485 194.462179,31.3409091 L194.465825,24.35 C194.465825,24.1818182 194.45352,24.1090909 194.167308,23.7345455 C193.852841,23.3254545 181.385797,9.23454545 180.815198,8.61409091 C180.106507,7.84363636 178.862309,6.65272727 176.971858,6.65272727 L172.636307,6.65272727 L172.636307,2.22727273 L197.104162,2.22727273 L197.104162,6.64727273 L194.154547,6.64727273 C193.47229,6.64727273 193.018818,7.29272727 193.601723,8.01 C193.601723,8.01 201.833936,17.8313636 201.91187,17.9340909 C201.988436,18.0386364 202.054064,18.0636364 202.158886,17.9681818 C202.261886,17.8704545 210.597555,8.1 210.663183,8.02272727 C211.059685,7.54909091 210.790793,6.65227273 209.936261,6.65227273 L206.910536,6.65227273 L206.910536,2.22727273 L226.96354,2.22727273 L226.96354,6.65227273 L222.483517,6.65227273 C220.858312,6.65227273 220.197019,6.95227273 218.974241,8.33090909 C218.415036,8.96181818 205.814913,23.3059091 205.472189,23.6945455 C205.292624,23.8977273 205.308119,24.1809091 205.308119,24.3490909 L205.308119,31.3390909 C205.308119,31.4809091 205.340022,32.1454545 205.403827,32.2945455 C205.555591,32.6536364 205.884187,32.9963636 206.365459,33.1445455 C206.534087,33.1963636 207.39272,33.2218182 207.588237,33.2218182 L212.170804,33.2218182 L212.170804,37.6463636 L187.829192,37.6463636 L187.829192,33.2213636 L192.17249,33.225 L192.171579,33.225 Z" id="path4258"></path>
                </g>
            </g>
        </g>
    </g>
</svg>