<?xml version="1.0" encoding="UTF-8"?>
<svg width="30px" height="30px" viewBox="0 0 30 30" version="1.1" xmlns="http://www.w3.org/2000/svg" xmlns:xlink="http://www.w3.org/1999/xlink">
    <!-- Generator: Sketch 41.2 (35397) - http://www.bohemiancoding.com/sketch -->
    <title>Page 1</title>
    <desc>Created with Sketch.</desc>
    <defs></defs>
    <g id="Welcome" stroke="none" stroke-width="1" fill="none" fill-rule="evenodd">
        <g id="Desktop-HD" transform="translate(-915.000000, -2924.000000)" fill="#A9A9A9">
            <path d="M930,2924 C925.859355,2924 922.324234,2925.46483 919.394531,2928.39453 C916.464829,2931.32423 915,2934.85936 915,2939 C915,2943.14064 916.464829,2946.67577 919.394531,2949.60547 C922.324234,2952.53517 925.859355,2954 930,2954 C934.140645,2954 937.675766,2952.53517 940.605469,2949.60547 C943.535171,2946.67577 945,2943.14064 945,2939 C945,2934.85936 943.535171,2931.32423 940.605469,2928.39453 C937.675766,2925.46483 934.140645,2924 930,2924 Z M937.441406,2935.66016 C937.48047,2935.81641 937.5,2935.97266 937.5,2936.12891 C937.5,2938.78517 936.542978,2941.19726 934.628906,2943.36523 C932.714835,2945.53321 930.156266,2946.61719 926.953125,2946.61719 C924.921866,2946.61719 923.046885,2946.07032 921.328125,2944.97656 C921.601564,2945.01563 921.894529,2945.03516 922.207031,2945.03516 C923.886728,2945.03516 925.41015,2944.50782 926.777344,2943.45312 C925.957027,2943.41406 925.23438,2943.16016 924.609375,2942.69141 C923.984374,2942.22265 923.554688,2941.61719 923.320312,2940.875 C923.554688,2940.91406 923.789062,2940.93359 924.023438,2940.93359 C924.33594,2940.93359 924.667969,2940.89453 925.019531,2940.81641 C924.160151,2940.62109 923.447269,2940.19141 922.880858,2939.52734 C922.31445,2938.86328 922.03125,2938.08204 922.03125,2937.18359 L922.03125,2937.125 C922.539064,2937.4375 923.105468,2937.59375 923.730469,2937.59375 C922.59765,2936.85156 922.03125,2935.83594 922.03125,2934.54688 C922.03125,2933.88281 922.207031,2933.25782 922.558594,2932.67188 C924.511729,2935.09376 927.050764,2936.38281 930.175781,2936.53906 C930.097657,2936.26562 930.058594,2935.97266 930.058594,2935.66016 C930.058594,2934.64453 930.419917,2933.7754 931.14258,2933.05273 C931.865239,2932.33007 932.734369,2931.96875 933.75,2931.96875 C934.843755,2931.96875 935.742184,2932.35937 936.445312,2933.14062 C937.304692,2932.98437 938.085934,2932.69141 938.789062,2932.26172 C938.515624,2933.16016 937.988284,2933.84375 937.207031,2934.3125 C937.91016,2934.23438 938.613277,2934.03906 939.316406,2933.72656 C938.808593,2934.46875 938.183599,2935.11328 937.441406,2935.66016 Z" id="Page-1"></path>
        </g>
    </g>
</svg>