<?xml version="1.0" encoding="UTF-8"?>
<svg width="72px" height="88px" viewBox="0 0 72 88" version="1.1" xmlns="http://www.w3.org/2000/svg" xmlns:xlink="http://www.w3.org/1999/xlink">
    <!-- Generator: Sketch 41.2 (35397) - http://www.bohemiancoding.com/sketch -->
    <title>womenAvatar</title>
    <desc>Created with Sketch.</desc>
    <defs></defs>
    <g id="Page-1" stroke="none" stroke-width="1" fill="none" fill-rule="evenodd">
        <g id="resource" transform="translate(-741.000000, -164.000000)" fill="#A9A9A9">
            <g id="womenAvatar" transform="translate(741.000000, 163.000000)">
                <g id="Group">
                    <path d="M61.3,57.1 C59,56.9 51,52.9 46.2,50.8 C46.1,56.7 47.6,66.6 47.6,67.4 C47.5,68.5 44.9,71.5 40,78 C40,78 40,75.6 39.6,70.3 C39.3,66.3 37.4,64.2 37.4,62.1 C37.4,61.6 39.3,60.3 39.3,59 C39.3,57.7 38.9,56.4 36.2,56.4 C33.5,56.4 33.1,57.7 33.1,59 C33.1,60.3 35,61.6 35,62.1 C35,64.2 33.1,66.3 32.8,70.2 C32.4,75.5 32.4,77.9 32.4,77.9 C27.5,71.4 24.9,68.4 24.8,67.3 C24.7,66.5 26.2,56.6 26.2,50.7 C21,52.9 13,56.9 10.7,57.1 C8,57.3 7.3,58.1 6,60.4 C4.6,62.7 1.4,74.1 0.9,81.4 C4.9,83 17.4,89 36,89 C54.6,89 67.1,83 71.1,81.4 C70.6,74.1 67.4,62.7 66,60.4 C64.7,58.1 64,57.4 61.3,57.1 Z" id="Shape"></path>
                    <path d="M34.6,55.8 L37.3,55.8 L44.1,49.8 L44.1,44.9 C51.7,44.3 58.8,42.8 60.3,41.5 C53.5,35.3 55.9,24.5 54.4,14.6 C52.9,4.7 42,1.3 37.5,1 C33,0.7 29.3,2.7 28.4,4.1 C23.2,1.9 18.3,11.3 18.2,16.4 C18.1,21.5 16.5,38 11.7,41.4 C12.5,42 13.9,42.6 15.7,43.1 C17.4,42 18.5,39.7 18.8,37.8 C18.4,41 17.9,42.4 17.4,43.5 C18,43.6 18.6,43.7 19.2,43.8 C19.8,43.1 20.3,42.4 20.4,41.7 C20.2,42.6 20.1,43.3 19.9,43.9 C22.3,44.3 25.1,44.6 27.9,44.8 L27.9,49.7 L34.6,55.8 Z" id="Shape"></path>
                </g>
            </g>
        </g>
    </g>
</svg>