<?xml version="1.0" encoding="UTF-8"?>
<svg width="1140px" height="360px" viewBox="0 0 1140 360" version="1.1" xmlns="http://www.w3.org/2000/svg" xmlns:xlink="http://www.w3.org/1999/xlink">
    <!-- Generator: Sketch 41.2 (35397) - http://www.bohemiancoding.com/sketch -->
    <title>Artboard</title>
    <desc>Created with Sketch.</desc>
    <defs></defs>
    <g id="Page-1" stroke="none" stroke-width="1" fill="none" fill-rule="evenodd">
        <g id="Artboard">
            <g id="banner1">
                <g id="Group">
                    <polygon id="Shape" fill="#199475" points="0 0 1140 0 1140 360 0 360"></polygon>
                    <polygon id="Shape" fill="#FFFFFF" points="431.5 62 430.5 62 430.5 136 431.5 136 431.5 62"></polygon>
                </g>
            </g>
            <polygon id="Rectangle-2" fill="#FFFFFF" points="227 63.3280644 267.5 55 308 63.3280644 308 127.998674 267.5 136 227 127.998674"></polygon>
            <polygon id="Rectangle-2-Copy" fill="#FFFFFF" points="577 184.21544 597.5 180 618 184.21544 618 216.949946 597.5 221 577 216.949946"></polygon>
            <polygon id="Rectangle-2-Copy-2" fill="#FFFFFF" points="1017 184.21544 1037.5 180 1058 184.21544 1058 216.949946 1037.5 221 1017 216.949946"></polygon>
            <polygon id="Rectangle-2-Copy-4" fill="#FFFFFF" points="922 184.21544 942.5 180 963 184.21544 963 216.949946 942.5 221 922 216.949946"></polygon>
            <polygon id="Rectangle-2-Copy-3" fill="#FFFFFF" points="641 76.21544 661.5 72 682 76.21544 682 108.949946 661.5 113 641 108.949946"></polygon>
        </g>
    </g>
</svg>