<svg fill="#999999" xmlns="http://www.w3.org/2000/svg" xmlns:xlink="http://www.w3.org/1999/xlink" version="1.1" x="0px" y="0px" viewBox="0 0 100 100" enable-background="new 0 0 100 100" xml:space="preserve"><path d="M84.292,21.229H15.708c-5.238,0-9.5,4.262-9.5,9.5v38.543c0,5.238,4.262,9.5,9.5,9.5h68.584c5.238,0,9.5-4.262,9.5-9.5  V30.729C93.792,25.49,89.53,21.229,84.292,21.229z M15.708,26.229h68.584c2.481,0,4.5,2.019,4.5,4.5v4.729L55.328,58.812  c-0.732,0.536-3.098,1.928-5.225,1.928c-2.952,0-4.981-1.632-4.984-1.634l-33.911-23.37v-5.007  C11.208,28.247,13.227,26.229,15.708,26.229z M84.292,73.771H15.708c-2.481,0-4.5-2.019-4.5-4.5V41.805l30.79,21.207  c0.683,0.546,3.687,2.728,8.105,2.728c4.166,0,7.8-2.612,8.14-2.866l30.549-21.319v27.718  C88.792,71.753,86.773,73.771,84.292,73.771z"/></svg>