<?xml version="1.0" encoding="UTF-8"?>
<svg width="30px" height="30px" viewBox="0 0 30 30" version="1.1" xmlns="http://www.w3.org/2000/svg" xmlns:xlink="http://www.w3.org/1999/xlink">
    <!-- Generator: Sketch 41.2 (35397) - http://www.bohemiancoding.com/sketch -->
    <title>Page 1</title>
    <desc>Created with Sketch.</desc>
    <defs></defs>
    <g id="Welcome" stroke="none" stroke-width="1" fill="none" fill-rule="evenodd">
        <g id="Desktop-HD" transform="translate(-972.000000, -2923.000000)" fill="#A9A9A9">
            <path d="M987,2923 C982.859355,2923 979.324234,2924.46483 976.394531,2927.39453 C973.464829,2930.32423 972,2933.85936 972,2938 C972,2942.14064 973.464829,2945.67577 976.394531,2948.60547 C979.324234,2951.53517 982.859355,2953 987,2953 C991.140645,2953 994.675766,2951.53517 997.605469,2948.60547 C1000.53517,2945.67577 1002,2942.14064 1002,2938 C1002,2933.85936 1000.53517,2930.32423 997.605469,2927.39453 C994.675766,2924.46483 991.140645,2923 987,2923 Z M990.867188,2938 L988.40625,2938 L988.40625,2947.02344 L985.066406,2947.02344 L985.066406,2938 L982.78125,2938 L982.78125,2934.89453 L985.066406,2934.89453 L985.066406,2933.07812 C985.066406,2931.71093 985.320311,2930.68555 985.828125,2930.00196 C986.335939,2929.31836 987.292961,2928.97656 988.699219,2928.97656 L991.160156,2928.97656 L991.160156,2932.08203 L989.636719,2932.08203 C989.089841,2932.08203 988.748047,2932.17969 988.61133,2932.375 C988.474609,2932.57031 988.40625,2932.90234 988.40625,2933.37109 L988.40625,2934.89453 L991.21875,2934.89453 L990.867188,2938 Z" id="Page-1"></path>
        </g>
    </g>
</svg>