<?xml version="1.0" encoding="UTF-8"?>
<svg width="30px" height="30px" viewBox="0 0 30 30" version="1.1" xmlns="http://www.w3.org/2000/svg" xmlns:xlink="http://www.w3.org/1999/xlink">
    <!-- Generator: Sketch 41.2 (35397) - http://www.bohemiancoding.com/sketch -->
    <title>Page 1</title>
    <desc>Created with Sketch.</desc>
    <defs></defs>
    <g id="Welcome" stroke="none" stroke-width="1" fill="none" fill-rule="evenodd">
        <g id="Desktop-HD" transform="translate(-1029.000000, -2923.000000)" fill="#A9A9A9">
            <path d="M1044,2923 C1039.85936,2923 1036.32423,2924.46483 1033.39453,2927.39453 C1030.46483,2930.32423 1029,2933.85936 1029,2938 C1029,2942.14064 1030.46483,2945.67577 1033.39453,2948.60547 C1036.32423,2951.53517 1039.85936,2953 1044,2953 C1048.14064,2953 1051.67577,2951.53517 1054.60547,2948.60547 C1057.53517,2945.67577 1059,2942.14064 1059,2938 C1059,2933.85936 1057.53517,2930.32423 1054.60547,2927.39453 C1051.67577,2924.46483 1048.14064,2923 1044,2923 Z M1040.25,2945.26562 L1036.5,2945.26562 L1036.5,2932.14062 L1040.25,2932.14062 L1040.25,2945.26562 Z M1038.49219,2931.32031 C1038.02343,2931.32031 1037.61328,2931.1543 1037.26172,2930.82227 C1036.91016,2930.49023 1036.73438,2930.08008 1036.73438,2929.59179 C1036.73438,2929.10351 1036.91016,2928.68359 1037.26172,2928.33203 C1037.61328,2927.98047 1038.02343,2927.80469 1038.49219,2927.80469 C1038.96094,2927.80469 1039.37109,2927.98047 1039.72266,2928.33203 C1040.07422,2928.68359 1040.25,2929.10351 1040.25,2929.59179 C1040.25,2930.08008 1040.07422,2930.49023 1039.72266,2930.82227 C1039.37109,2931.1543 1038.96094,2931.32031 1038.49219,2931.32031 Z M1053.375,2945.26562 L1049.625,2945.26562 L1049.625,2937.17969 C1049.625,2936.08593 1049.13672,2935.53906 1048.16016,2935.53906 C1047.61328,2935.53906 1047.14453,2935.67578 1046.75391,2935.94922 C1046.36328,2936.22266 1046.12891,2936.49609 1046.05078,2936.76953 L1045.875,2937.17969 L1045.875,2945.26562 L1042.125,2945.26562 L1042.125,2932.14062 L1045.875,2932.14062 L1045.875,2933.37109 C1046.96876,2932.55078 1048.21874,2932.14062 1049.625,2932.14062 C1050.52344,2932.14062 1051.37304,2932.51171 1052.17383,2933.25391 C1052.97461,2933.9961 1053.375,2935.32421 1053.375,2937.23828 L1053.375,2945.26562 Z" id="Page-1"></path>
        </g>
    </g>
</svg>