<svg fill="#F38F19" xmlns="http://www.w3.org/2000/svg" xmlns:xlink="http://www.w3.org/1999/xlink" version="1.1" x="0px" y="0px" viewBox="0 0 100 100" enable-background="new 0 0 100 100" xml:space="preserve"><g><g><path fill="#F38F19" d="M57.736,45.35"/></g></g><g><g><path fill="#F38F19" d="M64.065,65.997c-0.552,0-1-0.447-1-1s0.448-1,1-1c9.861,0,17.883-8.022,17.883-17.883    c0-9.861-8.022-17.885-17.883-17.885c-5.961,0-11.511,2.956-14.845,7.908c-0.151,0.225-0.388,0.379-0.654,0.426    c-0.268,0.049-0.542-0.016-0.761-0.174c-2.064-1.492-4.491-2.281-7.018-2.281c-5.296,0-9.905,3.396-11.47,8.45    c-0.12,0.387-0.461,0.664-0.865,0.7C23.063,43.744,19,48.192,19,53.604c0,5.73,4.663,10.393,10.394,10.393c0.552,0,1,0.447,1,1    s-0.448,1-1,1C22.56,65.997,17,60.438,17,53.604c0-6.232,4.519-11.393,10.616-12.262c2.001-5.55,7.214-9.234,13.171-9.234    c2.615,0,5.137,0.723,7.353,2.099c3.75-5.014,9.631-7.978,15.926-7.978c10.963,0,19.883,8.92,19.883,19.885    C83.948,57.078,75.029,65.997,64.065,65.997z"/></g></g><g><g><g><path fill="#F38F19" d="M36.349,78.231c-0.05,0-0.101-0.004-0.152-0.012l-4.11-0.632c-0.458-0.07-0.808-0.446-0.845-0.908     l-0.316-3.952c-0.023-0.292,0.083-0.58,0.29-0.787l13.221-13.222c-1.185-3.526-0.289-7.416,2.37-10.076     c1.857-1.856,4.326-2.879,6.951-2.879c2.626,0,5.095,1.022,6.951,2.879c3.833,3.832,3.833,10.069,0,13.902     c-1.856,1.855-4.323,2.878-6.948,2.878c0,0,0,0,0,0c-1.246,0-2.493-0.24-3.647-0.699l-2.612,2.611     c-0.206,0.206-0.491,0.315-0.78,0.29l-1.273-0.093l-0.318,0.318l0.279,1.283c0.072,0.333-0.029,0.68-0.27,0.92l-0.692,0.691     c-0.188,0.188-0.442,0.293-0.707,0.293h-1.048l-0.464,0.465l0.253,0.805c0.111,0.355,0.017,0.743-0.247,1.007l-0.909,0.909     c-0.188,0.188-0.442,0.293-0.708,0.293h-2.083v1.529c0,0.266-0.105,0.52-0.293,0.707l-1.186,1.186     C36.867,78.128,36.612,78.231,36.349,78.231z M33.172,75.731L36,76.166l0.534-0.534v-2.115c0-0.553,0.448-1,1-1h2.668     l0.188-0.188l-0.253-0.805c-0.111-0.355-0.017-0.743,0.247-1.007l1.186-1.187c0.188-0.188,0.442-0.293,0.708-0.293l1.061-0.013     l-0.279-1.283c-0.072-0.333,0.029-0.679,0.27-0.92l1.028-1.028c0.206-0.206,0.49-0.313,0.781-0.29l1.274,0.093l2.772-2.771     c0.302-0.303,0.761-0.378,1.145-0.192c1.06,0.517,2.247,0.79,3.433,0.79h0c2.09,0,4.056-0.814,5.534-2.292     c3.053-3.054,3.053-8.021,0-11.074c-1.479-1.479-3.445-2.293-5.537-2.293c-2.091,0-4.058,0.814-5.537,2.293     c-2.246,2.247-2.913,5.596-1.698,8.533c0.154,0.373,0.069,0.803-0.217,1.089l-13.349,13.35L33.172,75.731z"/></g></g><g><g><path fill="#F38F19" d="M55.684,57.395c-0.995,0-1.931-0.388-2.634-1.092c-1.453-1.452-1.453-3.816,0-5.269     c1.407-1.408,3.862-1.408,5.268,0c1.453,1.452,1.453,3.816,0,5.269C57.614,57.007,56.679,57.395,55.684,57.395z M55.684,51.943     c-0.461,0-0.894,0.179-1.22,0.505c-0.673,0.673-0.673,1.768,0,2.44c0.652,0.652,1.789,0.653,2.44,0     c0.673-0.673,0.673-1.768,0-2.44C56.578,52.122,56.144,51.943,55.684,51.943z"/></g></g></g></svg>