<?xml version="1.0" encoding="UTF-8"?>
<svg width="30px" height="30px" viewBox="0 0 30 30" version="1.1" xmlns="http://www.w3.org/2000/svg" xmlns:xlink="http://www.w3.org/1999/xlink">
    <!-- Generator: Sketch 41.2 (35397) - http://www.bohemiancoding.com/sketch -->
    <title>Page 1</title>
    <desc>Created with Sketch.</desc>
    <defs></defs>
    <g id="Welcome" stroke="none" stroke-width="1" fill="none" fill-rule="evenodd">
        <g id="Desktop-HD" transform="translate(-1086.000000, -2923.000000)" fill="#A9A9A9">
            <path d="M1101,2923 C1096.85936,2923 1093.32423,2924.46483 1090.39453,2927.39453 C1087.46483,2930.32423 1086,2933.85936 1086,2938 C1086,2942.14064 1087.46483,2945.67577 1090.39453,2948.60547 C1093.32423,2951.53517 1096.85936,2953 1101,2953 C1105.14064,2953 1108.67577,2951.53517 1111.60547,2948.60547 C1114.53517,2945.67577 1116,2942.14064 1116,2938 C1116,2933.85936 1114.53517,2930.32423 1111.60547,2927.39453 C1108.67577,2924.46483 1105.14064,2923 1101,2923 Z M1105.04297,2946.84766 C1104.10547,2946.84766 1103.2461,2946.61328 1102.46484,2946.14453 C1101.95703,2946.22266 1101.44922,2946.26172 1100.94141,2946.26172 C1098.67577,2946.26172 1096.73243,2945.46094 1095.11133,2943.85938 C1093.49023,2942.25781 1092.67969,2940.32423 1092.67969,2938.05859 C1092.67969,2937.6289 1092.71875,2937.19922 1092.79688,2936.76953 C1092.25,2935.94922 1091.97656,2935.05079 1091.97656,2934.07422 C1091.97656,2932.70703 1092.46484,2931.54493 1093.44141,2930.58789 C1094.41797,2929.63085 1095.58984,2929.15234 1096.95703,2929.15234 C1097.9336,2929.15234 1098.83203,2929.40625 1099.65234,2929.91406 C1100.08203,2929.83594 1100.51172,2929.79688 1100.94141,2929.79688 C1103.2461,2929.79688 1105.19921,2930.60741 1106.80078,2932.22852 C1108.40235,2933.84962 1109.20312,2935.79296 1109.20312,2938.05859 C1109.20312,2938.41016 1109.18359,2938.78125 1109.14453,2939.17188 C1109.73047,2939.99219 1110.02344,2940.91015 1110.02344,2941.92578 C1110.02344,2943.29297 1109.53516,2944.45507 1108.55859,2945.41211 C1107.58203,2946.36915 1106.41016,2946.84766 1105.04297,2946.84766 Z M1099.94531,2936.47656 C1098.77343,2936.20312 1098.36328,2935.67578 1098.71484,2934.89453 C1099.06641,2934.1914 1099.74999,2933.83984 1100.76562,2933.83984 C1101.46875,2933.87891 1102.20117,2934.2207 1102.96289,2934.86523 C1103.72462,2935.50977 1104.22266,2935.8125 1104.45703,2935.77344 C1104.96484,2935.73437 1105.27734,2935.45117 1105.39453,2934.92383 C1105.51172,2934.39648 1105.27735,2933.83985 1104.69141,2933.25391 C1103.4414,2932.19922 1101.82032,2931.75 1099.82812,2931.90625 C1098.85156,2931.98437 1098.02149,2932.32617 1097.33789,2932.93164 C1096.65429,2933.53711 1096.27344,2934.36718 1096.19531,2935.42188 C1096.07812,2936.43751 1096.48828,2937.25781 1097.42578,2937.88281 C1098.36328,2938.50781 1099.43749,2938.91797 1100.64844,2939.11328 C1101.58594,2939.23047 1102.33789,2939.48437 1102.9043,2939.875 C1103.47071,2940.26563 1103.48047,2940.77344 1102.93359,2941.39844 C1102.58203,2941.75 1102.13281,2941.95508 1101.58594,2942.01367 C1101.03906,2942.07227 1100.57031,2942.04297 1100.17969,2941.92578 C1099.78906,2941.80859 1099.45703,2941.67188 1099.18359,2941.51562 C1099.06641,2941.4375 1098.89062,2941.26172 1098.65625,2940.98828 C1098.42188,2940.71484 1098.16797,2940.48047 1097.89453,2940.28516 C1097.62109,2940.08984 1097.32813,2939.99219 1097.01562,2939.99219 C1096.46875,2940.03125 1096.13672,2940.32422 1096.01953,2940.87109 C1095.90234,2941.41797 1096.13672,2942.0039 1096.72266,2942.62891 C1097.9336,2943.72266 1099.59374,2944.21094 1101.70312,2944.09375 C1103.07032,2944.01563 1104.20312,2943.48829 1105.10156,2942.51172 C1106.00001,2941.53515 1106.23438,2940.51953 1105.80469,2939.46484 C1105.64844,2939.11328 1105.43359,2938.80078 1105.16016,2938.52734 C1104.88672,2938.25391 1104.63281,2938.0293 1104.39844,2937.85352 C1104.16406,2937.67773 1103.82227,2937.51172 1103.37305,2937.35547 C1102.92383,2937.19922 1102.57227,2937.0918 1102.31836,2937.03321 C1102.06445,2936.97461 1101.6543,2936.87695 1101.08789,2936.74023 C1100.52148,2936.60351 1100.14063,2936.51563 1099.94531,2936.47656 Z" id="Page-1"></path>
        </g>
    </g>
</svg>