<svg fill="#999999" xmlns:dc="http://purl.org/dc/elements/1.1/" xmlns:cc="http://creativecommons.org/ns#" xmlns:rdf="http://www.w3.org/1999/02/22-rdf-syntax-ns#" xmlns:svg="http://www.w3.org/2000/svg" xmlns="http://www.w3.org/2000/svg" xmlns:sodipodi="http://sodipodi.sourceforge.net/DTD/sodipodi-0.dtd" xmlns:inkscape="http://www.inkscape.org/namespaces/inkscape" version="1.1" x="0px" y="0px" viewBox="0 0 100 100"><g transform="translate(0,-952.36218)"><path style="text-indent:0;text-transform:none;direction:ltr;block-progression:tb;baseline-shift:baseline;color:#000000;enable-background:accumulate;" d="m 45.002638,955.36217 c -9.24348,0 -16.87661,7.0148 -17.8739,16 l -6.12462,0 c -3.82612,0 -6.86303,3.1862 -6.99957,6.875 l -1.99988,54.00003 c -0.14644,3.9558 3.17347,7.125 6.99957,7.125 l 36.52901,0 c 2.68153,5.88 8.610472,10 15.467802,10 9.35273,0 16.99895,-7.6467 16.99895,-17 0,-7.0845 -4.40077,-13.1737 -10.5931,-15.7188 l -1.40616,-38.40623 c -0.13656,-3.6887 -3.17346,-6.875 -6.99957,-6.875 l -6.124632,0 c -0.99728,-8.9852 -8.63042,-16 -17.8739,-16 z m 0,6 c 6.0151,0 10.87726,4.2766 11.81178,10 l -23.62355,0 c 0.93452,-5.7234 5.79667,-10 11.81177,-10 z m -23.99852,16 5.99963,0 0,3.6875 c -2.35319,1.1349 -3.99976,3.5518 -3.99976,6.3125 0,3.8305 3.1699,7 6.99957,7 3.82969,0 6.99957,-3.1695 6.99957,-7 0,-2.7607 -1.64657,-5.1776 -3.99975,-6.3125 l 0,-3.6875 23.99853,0 0,3.6875 c -2.35318,1.1349 -3.99976,3.5518 -3.99976,6.3125 0,3.8305 3.16989,7 6.99957,7 3.829692,0 6.999572,-3.1695 6.999572,-7 0,-2.7607 -1.64657,-5.1776 -3.999752,-6.3125 l 0,-3.6875 5.999632,0 c 0.60396,0 0.97254,0.3535 0.99994,1.0938 l 1.34366,36.93743 c -0.11659,0 -0.22658,-0.031 -0.34372,-0.031 -9.352742,0 -16.998962,7.6467 -16.998962,17 0,0.3403 0.0426,0.6645 0.0625,1 l -35.06035,0 c -0.604,0 -1.01746,-0.4332 -0.99994,-0.9062 l 1.99988,-54.00003 c 0.0274,-0.7404 0.39596,-1.0938 0.99994,-1.0938 z m 8.99944,9 c 0.58771,0 0.99994,0.4122 0.99994,1 0,0.5878 -0.41223,1 -0.99994,1 -0.58769,0 -0.99993,-0.4122 -0.99993,-1 0,-0.5878 0.41224,-1 0.99993,-1 z m 29.99816,0 c 0.5877,0 0.99994,0.4122 0.99994,1 0,0.5878 -0.41224,1 -0.99994,1 -0.5877,0 -0.99994,-0.4122 -0.99994,-1 0,-0.5878 0.41224,-1 0.99994,-1 z m 10.999332,35.00003 c 6.11029,0 10.99932,4.8893 10.99932,11 0,6.1107 -4.88903,11 -10.99932,11 -6.1103,0 -10.999332,-4.8893 -10.999332,-11 0,-6.1107 4.889032,-11 10.999332,-11 z m -4.9997,3 c -0.77264,0 -1.53539,0.3172 -2.12487,0.9062 -1.179082,1.1785 -1.179012,3.0718 0,4.25 l 2.84358,2.8438 -2.84358,2.8438 c -1.179012,1.1783 -1.179002,3.1028 0,4.2812 1.17903,1.1783 3.10198,1.1783 4.28099,0 l 2.84358,-2.8438 2.84357,2.8438 c 1.17901,1.1783 3.07071,1.1783 4.24974,0 1.17901,-1.1784 1.17902,-3.1029 0,-4.2812 l -2.84358,-2.8438 2.84358,-2.8438 c 1.20913,-1.2038 1.17909,-3.0715 0,-4.25 -1.17895,-1.1783 -3.07072,-1.1783 -4.24974,0 l -2.84357,2.8438 -2.84358,-2.8438 c -0.5895,-0.589 -1.38346,-0.9062 -2.15612,-0.9062 z" fill="#999999" fill-opacity="1" stroke="none" marker="none" visibility="visible" display="inline" overflow="visible"/></g></svg>